<?xml version="1.0" encoding="UTF-8" standalone="no"?>
<!-- Created with Inkscape (http://www.inkscape.org/) -->

<svg
   xmlns:dc="http://purl.org/dc/elements/1.1/"
   xmlns:cc="http://creativecommons.org/ns#"
   xmlns:rdf="http://www.w3.org/1999/02/22-rdf-syntax-ns#"
   xmlns:svg="http://www.w3.org/2000/svg"
   xmlns="http://www.w3.org/2000/svg"
   xmlns:sodipodi="http://sodipodi.sourceforge.net/DTD/sodipodi-0.dtd"
   xmlns:inkscape="http://www.inkscape.org/namespaces/inkscape"
   width="128"
   height="128"
   id="svg2"
   version="1.1"
   inkscape:version="0.48.5 r10040"
   sodipodi:docname="rewx2.svg">
  <defs
     id="defs4" />
  <sodipodi:namedview
     id="base"
     pagecolor="#ffffff"
     bordercolor="#666666"
     borderopacity="1.0"
     inkscape:pageopacity="0.0"
     inkscape:pageshadow="2"
     inkscape:zoom="1"
     inkscape:cx="-15.15303"
     inkscape:cy="226.6527"
     inkscape:document-units="px"
     inkscape:current-layer="g2987"
     showgrid="false"
     inkscape:window-width="1680"
     inkscape:window-height="992"
     inkscape:window-x="-2"
     inkscape:window-y="-3"
     inkscape:window-maximized="1" />
  <metadata
     id="metadata7">
    <rdf:RDF>
      <cc:Work
         rdf:about="">
        <dc:format>image/svg+xml</dc:format>
        <dc:type
           rdf:resource="http://purl.org/dc/dcmitype/StillImage" />
        <dc:title></dc:title>
      </cc:Work>
    </rdf:RDF>
  </metadata>
  <g
     inkscape:label="Ebene 1"
     inkscape:groupmode="layer"
     id="layer1"
     transform="translate(0,-924.36218)">
    <g
       id="g2987"
       transform="matrix(1.0210644,0,0,1.0210644,-324.33153,236.69039)">
      <path
         sodipodi:nodetypes="csscssscc"
         inkscape:connector-curvature="0"
         id="rect2996"
         d="m 388.98437,698.65625 c 3.8097,0 6.875,2.79853 6.875,6.28125 l 0,64.4375 c 0,3.48272 -3.0653,6.3125 -6.875,6.3125 l -68.09375,-32.875 c -1.91352,-0.92383 -3.25,-3.2742 -3.25,-5.3125 0,-2.08317 1.3148,-4.3613 3.28125,-5.3125 22.48754,-10.87759 45.481,-22.32109 68.06245,-33.5312 z"
         style="fill:#000000" />
      <path
         sodipodi:nodetypes="csscssscc"
         inkscape:connector-curvature="0"
         id="rect2996-3"
         d="m 436.125,698.65593 c 3.8097,0 6.875,2.79853 6.875,6.28125 l 0,64.4375 c 0,3.48272 -3.0653,6.3125 -6.875,6.3125 l -68.09375,-32.875 c -1.91352,-0.92383 -3.25,-3.2742 -3.25,-5.3125 0,-2.08317 1.3148,-4.3613 3.28125,-5.3125 22.48754,-10.87759 45.481,-22.32109 68.06245,-33.5312 z"
         style="fill:#000000" />
      <rect
         ry="4.1984377"
         y="673.48523"
         x="-357.7009"
         height="13.87697"
         width="37.741825"
         id="rect3050-2"
         style="fill:#000000"
         transform="scale(-1,1)" />
    </g>
  </g>
</svg>
