<?xml version="1.0" encoding="UTF-8" standalone="no"?>
<!-- Created with Inkscape (http://www.inkscape.org/) -->

<svg
   xmlns:dc="http://purl.org/dc/elements/1.1/"
   xmlns:cc="http://creativecommons.org/ns#"
   xmlns:rdf="http://www.w3.org/1999/02/22-rdf-syntax-ns#"
   xmlns:svg="http://www.w3.org/2000/svg"
   xmlns="http://www.w3.org/2000/svg"
   xmlns:sodipodi="http://sodipodi.sourceforge.net/DTD/sodipodi-0.dtd"
   xmlns:inkscape="http://www.inkscape.org/namespaces/inkscape"
   width="34"
   height="16"
   id="svg2"
   version="1.1"
   inkscape:version="0.48.5 r10040"
   sodipodi:docname="subtitle.svg">
  <defs
     id="defs4" />
  <sodipodi:namedview
     id="base"
     pagecolor="#ffffff"
     bordercolor="#666666"
     borderopacity="1.0"
     inkscape:pageopacity="0.0"
     inkscape:pageshadow="2"
     inkscape:zoom="8"
     inkscape:cx="22.8883"
     inkscape:cy="-4.873452"
     inkscape:document-units="px"
     inkscape:current-layer="layer1"
     showgrid="false"
     fit-margin-top="0"
     fit-margin-left="0"
     fit-margin-right="0"
     fit-margin-bottom="0"
     inkscape:window-width="836"
     inkscape:window-height="985"
     inkscape:window-x="840"
     inkscape:window-y="0"
     inkscape:window-maximized="0" />
  <metadata
     id="metadata7">
    <rdf:RDF>
      <cc:Work
         rdf:about="">
        <dc:format>image/svg+xml</dc:format>
        <dc:type
           rdf:resource="http://purl.org/dc/dcmitype/StillImage" />
        <dc:title />
      </cc:Work>
    </rdf:RDF>
  </metadata>
  <g
     inkscape:label="Ebene 1"
     inkscape:groupmode="layer"
     id="layer1"
     transform="translate(-374.42856,-724.36218)">
    <g
       transform="matrix(3.1268038,0,0,2.8700568,390.29265,867.35786)"
       style="font-size:6px;font-style:normal;font-variant:normal;font-weight:bold;font-stretch:normal;line-height:125%;letter-spacing:0px;word-spacing:0px;fill:#000000;fill-opacity:1;stroke:none;font-family:Opal;-inkscape-font-specification:Opal Bold"
       id="flowRoot2994">
      <path
         d="m 0.159,-49.05189 0,0.534 c -0.0200028,3e-6 -0.0420027,3e-6 -0.066,0 -0.0200027,-0.004 -0.04000268,-0.006 -0.06,-0.006 -0.02400263,3e-6 -0.04800261,3e-6 -0.072,0 -0.02000257,3e-6 -0.04000255,3e-6 -0.06,0 -0.06400246,3e-6 -0.1280024,0.002 -0.192,0.006 -0.0640023,0.004 -0.12800221,0.012 -0.192,0.024 -0.10000204,0.004 -0.19800194,0.022 -0.294,0.054 -0.0920018,0.028 -0.18400166,0.064 -0.276,0.108 -0.072002,0.032 -0.1420014,0.072 -0.21,0.12 -0.064001,0.048 -0.1240012,0.100003 -0.18,0.156 -0.056001,0.056 -0.1080011,0.118003 -0.156,0.186 -0.044001,0.064 -0.082001,0.132002 -0.114,0.204 -0.036001,0.076 -0.066001,0.156002 -0.09,0.24 -0.024001,0.08 -0.040001,0.160002 -0.048,0.24 -0.008,0.04 -0.014001,0.082 -0.018,0.126 -0.004,0.044 -0.006,0.088 -0.006,0.132 -7e-7,0.04 0.002,0.08 0.006,0.12 0.008,0.04 0.013999,0.082 0.018,0.126 0.015999,0.084 0.039999,0.166001 0.072,0.246 0.031999,0.076 0.071999,0.150001 0.12,0.222 0.091999,0.124001 0.1959988,0.238001 0.312,0.342 0.1159986,0.1 0.2419985,0.184 0.378,0.252 0.12799822,0.04 0.25799809,0.07 0.39,0.09 0.13199782,0.02 0.26399769,0.03 0.396,0.03 0.0559975,0 0.11199745,-0.002 0.168,-0.006 0.05999733,-0.004 0.11799727,-0.01 0.174,-0.018 l 0,0.516 -0.414,0 -0.408,-0.006 c -0.10400186,-0.008 -0.20800175,-0.026 -0.312,-0.054 -0.1040015,-0.028 -0.2040014,-0.064 -0.3,-0.108 -0.084001,-0.036 -0.1660012,-0.078 -0.246,-0.126 -0.076001,-0.052 -0.148001,-0.11 -0.216,-0.174 -0.072001,-0.056 -0.1380007,-0.118 -0.198,-0.186 -0.060001,-0.068 -0.1160006,-0.14 -0.168,-0.216 -0.064,-0.103999 -0.1200004,-0.211999 -0.168,-0.324 -0.044,-0.115999 -0.082,-0.233999 -0.114,-0.354 -0.012,-0.123999 -0.02,-0.245999 -0.024,-0.366 -2e-7,-0.123998 0.004,-0.245998 0.012,-0.366 0.016,-0.107998 0.04,-0.211998 0.072,-0.312 0.036,-0.103998 0.08,-0.203998 0.132,-0.3 0.055999,-0.096 0.1139995,-0.187997 0.174,-0.276 0.063999,-0.092 0.1339993,-0.177997 0.21,-0.258 0.059999,-0.068 0.1259991,-0.127997 0.198,-0.18 0.075999,-0.056 0.1539988,-0.103997 0.234,-0.144 0.1199986,-0.064 0.2419985,-0.115996 0.366,-0.156 0.12399826,-0.044 0.25199813,-0.078 0.384,-0.102 0.0839979,-0.016 0.16799783,-0.028 0.252,-0.036 0.0839977,-0.008 0.16799758,-0.012 0.252,-0.012 0.04799745,4e-6 0.0959974,0.002 0.144,0.006 0.04799731,4e-6 0.09399726,0.004 0.138,0.012 l 0,-0.006"
         style="fill:#000000"
         id="path2987" />
      <path
         d="m 3.1355625,-49.05189 0,0.534 c -0.020003,3e-6 -0.042003,3e-6 -0.066,0 -0.020003,-0.004 -0.040003,-0.006 -0.06,-0.006 -0.024003,3e-6 -0.048003,3e-6 -0.072,0 -0.020003,3e-6 -0.040002,3e-6 -0.06,0 -0.064002,3e-6 -0.1280024,0.002 -0.192,0.006 -0.064002,0.004 -0.1280022,0.012 -0.192,0.024 -0.100002,0.004 -0.1980019,0.022 -0.294,0.054 -0.092002,0.028 -0.1840017,0.064 -0.276,0.108 -0.072002,0.032 -0.1420014,0.072 -0.21,0.12 -0.064001,0.048 -0.1240012,0.100003 -0.18,0.156 -0.056001,0.056 -0.1080011,0.118003 -0.156,0.186 -0.044001,0.064 -0.082001,0.132002 -0.114,0.204 -0.036001,0.076 -0.066001,0.156002 -0.09,0.24 -0.024001,0.08 -0.040001,0.160002 -0.048,0.24 -0.008,0.04 -0.014001,0.082 -0.018,0.126 -0.004,0.044 -0.006,0.088 -0.006,0.132 -7e-7,0.04 0.002,0.08 0.006,0.12 0.008,0.04 0.013999,0.082 0.018,0.126 0.015999,0.084 0.039999,0.166001 0.072,0.246 0.031999,0.076 0.071999,0.150001 0.12,0.222 0.091999,0.124001 0.1959988,0.238001 0.312,0.342 0.1159986,0.1 0.2419985,0.184 0.378,0.252 0.1279982,0.04 0.2579981,0.07 0.39,0.09 0.1319978,0.02 0.2639977,0.03 0.396,0.03 0.055997,0 0.1119974,-0.002 0.168,-0.006 0.059997,-0.004 0.1179973,-0.01 0.174,-0.018 l 0,0.516 -0.414,0 -0.408,-0.006 c -0.1040019,-0.008 -0.2080018,-0.026 -0.312,-0.054 -0.1040015,-0.028 -0.2040014,-0.064 -0.3,-0.108 -0.084001,-0.036 -0.1660012,-0.078 -0.246,-0.126 -0.076001,-0.052 -0.148001,-0.11 -0.216,-0.174 -0.072001,-0.056 -0.1380007,-0.118 -0.198,-0.186 -0.0600006,-0.068 -0.11600057,-0.14 -0.168,-0.216 -0.0640005,-0.103999 -0.1200004,-0.211999 -0.168,-0.324 -0.0440003,-0.115999 -0.0820003,-0.233999 -0.114,-0.354 -0.0120002,-0.123999 -0.0200002,-0.245999 -0.024,-0.366 -2.2e-7,-0.123998 0.004,-0.245998 0.012,-0.366 0.0159998,-0.107998 0.0399997,-0.211998 0.072,-0.312 0.0359997,-0.103998 0.0799996,-0.203998 0.132,-0.3 0.0559995,-0.096 0.11399945,-0.187997 0.174,-0.276 0.0639993,-0.092 0.1339993,-0.177997 0.21,-0.258 0.059999,-0.068 0.1259991,-0.127997 0.198,-0.18 0.075999,-0.056 0.1539988,-0.103997 0.234,-0.144 0.1199986,-0.064 0.2419985,-0.115996 0.366,-0.156 0.1239983,-0.044 0.2519981,-0.078 0.384,-0.102 0.083998,-0.016 0.1679978,-0.028 0.252,-0.036 0.083998,-0.008 0.1679976,-0.012 0.252,-0.012 0.047997,4e-6 0.095997,0.002 0.144,0.006 0.047997,4e-6 0.093997,0.004 0.138,0.012 l 0,-0.006"
         style="fill:#000000"
         id="path2989" />
    </g>
  </g>
</svg>
